<?xml version="1.0" encoding="UTF-8"?>
<svg width="829px" height="232px" viewBox="0 0 829 232" version="1.1" xmlns="http://www.w3.org/2000/svg" xmlns:xlink="http://www.w3.org/1999/xlink">
    <!-- Generator: Sketch 52.2 (67145) - http://www.bohemiancoding.com/sketch -->
    <title>logo</title>
    <desc>Created with Sketch.</desc>
    <defs>
        <polygon id="path-1" points="0 187.725921 0 0 195.285604 0 195.285604 187.725921"></polygon>
        <polygon id="path-3" points="48.7165686 96.1346832 48.7165686 2.72960972e-14 0.494227451 0 0.494227451 96.1346832 48.7165686 96.1346832"></polygon>
    </defs>
    <g id="logo" stroke="none" stroke-width="1" fill="none" fill-rule="evenodd">
        <g id="Group-3" transform="translate(19.000000, 6.000000)">
            <mask id="mask-2" fill="white">
                <use xlink:href="#path-1"></use>
            </mask>
            <g id="Clip-2"></g>
            <path d="M192.79736,85.6280832 L103.417536,174.841241 C86.2058673,192.020814 58.3002478,192.020814 41.0885795,174.841241 L12.90856,146.714723 C-4.30310829,129.535149 -4.30310829,101.681565 12.90856,84.5019919 L95.0803649,2.4834132 C98.3980234,-0.828058883 103.777028,-0.828058883 107.094687,2.4834132 C110.412345,5.79488528 110.412345,11.1638599 107.094687,14.475332 L24.922882,96.4939107 C14.3465307,107.05054 14.3465307,124.166175 24.922882,134.722804 L53.1029015,162.849322 C63.6792527,173.405951 80.8268624,173.405951 91.4032137,162.849322 L180.783038,73.6361645 C184.100697,70.3246924 189.479701,70.3246924 192.79736,73.6361645 C196.115019,76.9476365 196.115019,82.3166112 192.79736,85.6280832" id="Fill-1" fill="#317CF1" mask="url(#mask-2)"></path>
        </g>
        <path d="M59.4655405,129.510671 C56.1713523,126.198886 56.1789579,120.836177 59.4836038,117.534875 L141.587322,35.4712213 C144.891018,32.1689665 150.239676,32.1775437 153.533865,35.4893289 L153.534815,35.4893289 C156.829004,38.8020671 156.820447,44.1638234 153.516752,47.4651252 L71.4120826,129.528779 C68.1083874,132.831034 62.7597286,132.822456 59.4655405,129.510671" id="Fill-4" fill="#5B4EEB"></path>
        <path d="M236.530026,105.49435 C239.830614,108.81377 239.822041,114.186342 236.511927,117.495258 L157.440681,196.523437 C154.130567,199.832352 148.771516,199.824713 145.470927,196.505292 L145.469974,196.505292 C142.169386,193.186827 142.177959,187.814256 145.488073,184.50534 L224.560272,105.476206 C227.870386,102.16729 233.229437,102.175885 236.530026,105.49435" id="Fill-6" fill="#317CF1"></path>
        <path d="M84.4896687,141.848561 L175.524011,50.9034787 C192.745535,33.6988404 220.667134,33.6988404 237.888658,50.9034787 L266.083857,79.0719881 C283.305381,96.2766264 283.305381,124.170848 266.083857,141.375486 L183.865956,223.512772 C180.546397,226.829076 175.164312,226.829076 171.843797,223.512772 C168.525196,220.196469 168.525196,214.820617 171.843797,211.503358 L254.062655,129.366071 C264.645063,118.79404 264.645063,101.653434 254.062655,91.0814029 L225.867456,62.9128934 C215.285049,52.3408621 198.12762,52.3408621 187.545212,62.9128934 L96.5108703,153.857976 C93.191312,157.174279 87.809227,157.174279 84.4896687,153.857976 C81.1701104,150.541672 81.1701104,145.164865 84.4896687,141.848561" id="Fill-8" fill="#5B4EEB"></path>
        <path d="M357.81068,138.181212 C357.81068,136.470604 357.342335,135.050531 356.405645,133.92291 C355.468005,132.797207 354.06107,131.827799 352.18579,131.016603 C350.31051,130.205406 347.920336,129.441194 345.020967,128.718213 C342.117798,127.998109 338.746284,127.231979 334.909275,126.419823 C327.676052,124.888523 322.606906,122.343706 319.706587,118.782496 C316.803418,115.223204 315.354683,111.055995 315.354683,106.277991 C315.354683,103.574003 315.890477,101.005215 316.961116,98.5725845 C318.032705,96.1389954 319.640087,93.9758052 321.783265,92.0830137 C323.926442,90.1902222 326.625363,88.7039878 329.885728,87.6223927 C333.144193,86.5407976 336.962203,86 341.336906,86 C345.710659,86 349.528668,86.49669 352.789034,87.4871933 C356.047499,88.4796144 358.79297,89.7414753 361.025446,91.2727762 C363.256022,92.8059949 364.954604,94.4485236 366.115491,96.2061157 C367.274479,97.9637078 367.899572,99.6541796 367.989821,101.275613 C368.078171,102.268993 367.743774,103.124297 366.985682,103.844402 C366.22569,104.566424 365.3555,104.925997 364.37416,104.925997 L359.953857,104.925997 C359.418063,104.925997 358.76922,104.81381 358.012078,104.587519 C357.252086,104.364104 356.560493,103.844402 355.9354,103.033205 C354.774512,101.501905 353.056931,100.21799 350.779805,99.1805023 C348.503629,98.1458913 345.355363,97.6261887 341.336906,97.6261887 C337.22915,97.6261887 333.903235,98.3932775 331.360112,99.9245784 C328.81509,101.457797 327.542103,103.574003 327.542103,106.277991 C327.542103,107.991475 327.898349,109.365523 328.613692,110.401093 C329.328084,111.437621 330.488972,112.33991 332.096355,113.105081 C333.702787,113.871211 335.822215,114.57022 338.457487,115.200192 C341.090859,115.832081 344.372124,116.598211 348.301282,117.497623 C352.408088,118.399911 355.846101,119.548626 358.615322,120.945686 C361.380742,122.343706 363.614168,123.919114 365.3118,125.676706 C367.007532,127.434298 368.212119,129.373115 368.927461,131.489321 C369.641854,133.608404 370,135.838714 370,138.181212 C370,140.885199 369.350207,143.500013 368.057271,146.021817 C366.761485,148.546498 364.909954,150.753796 362.49983,152.646588 C360.087806,154.53842 357.162787,156.072598 353.726674,157.242408 C350.28771,158.413177 346.380402,159 342.007599,159 C337.630995,159 333.746487,158.459202 330.355023,157.377607 C326.960709,156.296012 324.05944,154.96799 321.649316,153.389705 C319.238242,151.814296 317.383862,150.100812 316.090925,148.252128 C314.796089,146.406321 314.102597,144.669823 314.015197,143.04839 C313.924948,142.057886 314.236545,141.201623 314.952837,140.479601 C315.66533,139.759497 316.55927,139.398006 317.630859,139.398006 L322.453007,139.398006 C322.988802,139.398006 323.611995,139.466085 324.327337,139.600326 C325.04173,139.736484 325.710523,140.256187 326.337516,141.155598 C327.764401,143.138523 329.72898,144.669823 332.229353,145.752377 C334.727826,146.833014 337.989142,147.373811 342.007599,147.373811 C343.970278,147.373811 345.912057,147.150397 347.832937,146.697814 C349.751916,146.248109 351.449548,145.616219 352.922032,144.805982 C354.395467,143.993827 355.578204,143.026336 356.471194,141.898715 C357.363235,140.773013 357.81068,139.533205 357.81068,138.181212" id="Fill-10" fill="#4A4A4A"></path>
        <path d="M378,90.6173684 C378,89.6358235 378.358964,88.7882551 379.079765,88.072763 C379.79865,87.3582211 380.652507,87 381.644206,87 L386.63716,87 C387.625987,87 388.4808,87.3582211 389.201601,88.072763 C389.921444,88.7882551 390.281365,89.6358235 390.281365,90.6173684 L390.281365,125.983392 C390.281365,132.860858 391.833048,137.995677 394.936414,141.388801 C398.041695,144.783825 402.561773,146.479912 408.500479,146.479912 C414.168286,146.479912 418.621357,144.783825 421.860651,141.388801 C425.099945,137.995677 426.719592,132.860858 426.719592,125.983392 L426.719592,90.6173684 C426.719592,89.6358235 427.077599,88.7882551 427.798399,88.072763 C428.517285,87.3582211 429.372099,87 430.36284,87 L435.356752,87 C436.345579,87 437.199435,87.3582211 437.920235,88.072763 C438.640078,88.7882551 439,89.6358235 439,90.6173684 L439,153.043816 C439,154.027261 438.640078,154.874829 437.920235,155.589371 C437.199435,156.304863 436.345579,156.660234 435.356752,156.660234 L430.36284,156.660234 C429.372099,156.660234 428.517285,156.304863 427.798399,155.589371 C427.077599,154.874829 426.719592,154.027261 426.719592,153.043816 L426.719592,148.890541 C425.009007,151.124435 422.579537,153.200597 419.432138,155.119978 C416.281867,157.039359 411.962809,158 406.47592,158 C402.245885,158 398.378643,157.307312 394.869408,155.923838 C391.36113,154.540363 388.34583,152.574423 385.827336,150.029817 C383.306928,147.484262 381.373307,144.359091 380.024559,140.651455 C378.674853,136.947619 378,132.727831 378,127.993041 L378,90.6173684 Z" id="Fill-12" fill="#4A4A4A"></path>
        <path d="M463.287065,116.581737 C463.197043,117.929119 463.152032,119.703649 463.152032,121.903416 C463.152032,124.105095 463.197043,125.877714 463.287065,127.22414 C463.557132,133.602701 465.468666,138.520166 469.025498,141.977489 C472.581373,145.435769 477.193572,147.163475 482.864009,147.163475 C488.805471,147.163475 493.485665,145.278096 496.906506,141.505428 C500.32639,137.73276 502.216855,132.613666 502.577901,126.14719 C502.666008,123.633034 502.666008,121.117922 502.577901,118.60281 C502.216855,112.135378 500.32639,107.016284 496.906506,103.244572 C493.485665,99.4719037 488.805471,97.5855696 482.864009,97.5855696 C477.281678,97.5855696 472.691507,99.2932084 469.092536,102.705619 C465.49165,106.119941 463.557132,110.74404 463.287065,116.581737 M484.215299,158.75 C478.632968,158.75 474.176872,157.783899 470.847968,155.853608 C467.517149,153.923316 464.995571,151.835353 463.287065,149.588761 L463.287065,179.363026 C463.287065,180.35015 462.926019,181.202536 462.2068,181.922095 C461.484707,182.640698 460.631412,183 459.642126,183 L454.645897,183 C453.654696,183 452.799485,182.640698 452.081223,181.922095 C451.359131,181.202536 451,180.35015 451,179.363026 L451,90.9843559 C451,89.9962762 451.359131,89.1448457 452.081223,88.4243311 C452.799485,87.7066832 453.654696,87.3464259 454.645897,87.3464259 L459.642126,87.3464259 C460.631412,87.3464259 461.484707,87.7066832 462.2068,88.4243311 C462.926019,89.1448457 463.287065,89.9962762 463.287065,90.9843559 L463.287065,95.1602829 C465.086551,92.7349963 467.652182,90.6030756 470.983959,88.7606987 C474.312863,86.9211885 478.72299,86 484.215299,86 C488.444424,86 492.383372,86.740582 496.029269,88.2227017 C499.675166,89.7038657 502.848926,91.8386531 505.548632,94.6222859 C508.248339,97.4068743 510.408871,100.774372 512.029269,104.725736 C513.64871,108.679011 514.5949,113.125369 514.864967,118.063857 C514.953074,119.411239 515,120.872335 515,122.442369 C515,124.014314 514.953074,125.4735 514.864967,126.820881 C514.5949,131.76128 513.64871,136.206683 512.029269,140.158047 C510.408871,144.111321 508.248339,147.456841 505.548632,150.195561 C502.848926,152.936192 499.675166,155.045179 496.029269,156.527298 C492.383372,158.009418 488.444424,158.75 484.215299,158.75" id="Fill-14" fill="#4A4A4A"></path>
        <path d="M537.266693,116.146025 L574.935834,116.146025 L574.935834,115.740421 C574.935834,110.244158 573.214827,105.8506 569.775665,102.559746 C566.332699,99.2708095 561.753489,97.6253826 556.033279,97.6253826 C553.440358,97.6253826 551.029046,98.053999 548.79554,98.9093142 C546.561083,99.767506 544.594761,100.983358 542.896574,102.559746 C541.199337,104.138052 539.858663,106.052922 538.874551,108.305316 C537.89139,110.558669 537.35417,113.036398 537.266693,115.740421 L537.266693,116.146025 Z M525.336595,115.740421 C525.692206,111.59617 526.677269,107.720403 528.285127,104.11408 C529.893936,100.510633 531.993375,97.3549802 534.586296,94.6509569 C537.177315,91.9478924 540.283686,89.8306997 543.902555,88.297461 C547.522375,86.7661399 551.564365,86 556.033279,86 C560.859706,86 565.170782,86.7891529 568.969359,88.365541 C572.768886,89.9428879 576.008373,92.2182948 578.688771,95.1917616 C581.370119,98.1661872 583.42582,101.771552 584.856823,106.006896 C586.284023,110.244158 587,114.976199 587,120.201101 L587,123.851532 C587,124.844925 586.641536,125.70024 585.927461,126.420354 C585.210533,127.142386 584.363341,127.501964 583.382081,127.501964 L537.266693,127.501964 L537.266693,128.312212 C537.444499,134.44229 539.298623,139.151318 542.829065,142.439295 C546.359507,145.731108 550.759961,147.373659 556.033279,147.373659 C560.947183,147.373659 564.635463,146.677516 567.093366,145.27852 C569.551268,143.8824 571.538509,142.327107 573.05889,140.614559 C573.773917,139.894445 574.400515,139.397749 574.935834,139.127346 C575.471153,138.856944 576.277459,138.721743 577.348097,138.721743 L581.370119,138.721743 C582.35328,138.721743 583.246112,139.083238 584.050517,139.803352 C584.856823,140.525384 585.166794,141.381658 584.98994,142.372174 C584.721805,143.994588 583.961139,145.775216 582.710793,147.712141 C581.457596,149.650983 579.648161,151.452707 577.281539,153.119229 C574.912063,154.788627 571.96258,156.184747 568.43404,157.309506 C564.901696,158.436182 560.770328,159 556.033279,159 C551.564365,159 547.542343,158.209888 543.969113,156.634459 C540.393982,155.05903 537.286661,152.895811 534.653805,150.145762 C532.015244,147.39763 529.893936,144.152802 528.285127,140.412237 C526.677269,136.67263 525.692206,132.594541 525.336595,128.17797 C524.887802,124.032759 524.887802,119.88659 525.336595,115.740421 Z" id="Fill-16" fill="#4A4A4A"></path>
        <path d="M633.380914,87 C634.363876,87 635.211846,87.3599684 635.927678,88.0770406 C636.642559,88.7960225 637,89.6477248 637,90.635012 L637,94.9422196 C637,95.9314164 636.642559,96.7831187 635.927678,97.500191 C635.211846,98.2191729 634.363876,98.5772316 633.380914,98.5772316 L625.609433,98.5772316 C615.332066,98.5772316 610.194808,103.739006 610.194808,114.05778 L610.194808,153.364988 C610.194808,154.354185 609.836417,155.205887 609.122486,155.922959 C608.406654,156.642896 607.558684,157 606.577623,157 L601.617185,157 C600.634223,157 599.784351,156.642896 599.072322,155.922959 C598.35649,155.205887 598,154.354185 598,153.364988 L598,90.635012 C598,89.6477248 598.35649,88.7960225 599.072322,88.0770406 C599.784351,87.3599684 600.634223,87 601.617185,87 L606.577623,87 C607.558684,87 608.406654,87.3599684 609.122486,88.0770406 C609.836417,88.7960225 610.194808,89.6477248 610.194808,90.635012 L610.194808,94.8075895 C611.982011,92.1159428 614.126654,90.1423232 616.629689,88.884821 C619.128921,87.6292285 622.391517,87 626.412724,87 L633.380914,87 Z" id="Fill-18" fill="#4A4A4A"></path>
        <path d="M683.810742,138.181212 C683.810742,136.470604 683.34145,135.050531 682.405715,133.92291 C681.467129,132.797207 680.061152,131.827799 678.185881,131.016603 C676.310611,130.205406 673.920449,129.441194 671.020144,128.718213 C668.11699,127.998109 664.746443,127.231979 660.909454,126.419823 C653.675318,124.888523 648.607148,122.343706 645.705894,118.782496 C642.80274,115.223204 641.354013,111.055995 641.354013,106.277991 C641.354013,103.574003 641.890754,101.005215 642.960437,98.5725845 C644.03202,96.1389954 645.640345,93.9758052 647.782561,92.0830137 C649.925727,90.1902222 652.625585,88.7039878 655.885933,87.6223927 C659.143432,86.5407976 662.961422,86 667.337052,86 C671.709833,86 675.527823,86.49669 678.788172,87.4871933 C682.04757,88.4796144 684.793027,89.7414753 687.025492,91.2727762 C689.255106,92.8059949 690.95368,94.4485236 692.114561,96.2061157 C693.273543,97.9637078 693.899583,99.6541796 693.988882,101.275613 C694.07723,102.268993 693.742836,103.124297 692.984748,103.844402 C692.22571,104.566424 691.354573,104.925997 690.374189,104.925997 L685.953909,104.925997 C685.417167,104.925997 684.769277,104.81381 684.011189,104.587519 C683.252151,104.364104 682.560562,103.844402 681.935472,103.033205 C680.77459,101.501905 679.057017,100.21799 676.779903,99.1805023 C674.503739,98.1458913 671.355489,97.6261887 667.337052,97.6261887 C663.229317,97.6261887 659.90247,98.3932775 657.35936,99.9245784 C654.8153,101.457797 653.54232,103.574003 653.54232,106.277991 C653.54232,107.991475 653.898565,109.365523 654.613903,110.401093 C655.328292,111.437621 656.489174,112.33991 658.095598,113.105081 C659.702023,113.871211 661.82239,114.57022 664.457648,115.200192 C667.091006,115.832081 670.372255,116.598211 674.300443,117.497623 C678.407228,118.399911 681.846173,119.548626 684.61443,120.945686 C687.379836,122.343706 689.613251,123.919114 691.310874,125.676706 C693.007547,127.434298 694.212128,129.373115 694.927467,131.489321 C695.641856,133.608404 696,135.838714 696,138.181212 C696,140.885199 695.34926,143.500013 694.057281,146.021817 C692.760551,148.546498 690.90903,150.753796 688.499868,152.646588 C686.086906,154.53842 683.162853,156.072598 679.726757,157.242408 C676.286861,158.413177 672.379573,159 668.007742,159 C663.631161,159 659.745722,158.459202 656.354276,157.377607 C652.959979,156.296012 650.058725,154.96799 647.648613,153.389705 C645.238501,151.814296 643.384131,150.100812 642.091201,148.252128 C640.795421,146.406321 640.102882,144.669823 640.015484,143.04839 C639.924285,142.057886 640.23588,141.201623 640.952169,140.479601 C641.665608,139.759497 642.558594,139.398006 643.630177,139.398006 L648.452301,139.398006 C648.989042,139.398006 649.611282,139.466085 650.326621,139.600326 C651.04101,139.736484 651.710749,140.256187 652.337739,141.155598 C653.763667,143.138523 655.729186,144.669823 658.228596,145.752377 C660.728007,146.833014 663.989305,147.373811 668.007742,147.373811 C669.970411,147.373811 671.91123,147.150397 673.83305,146.697814 C675.75202,146.248109 677.448693,145.616219 678.92212,144.805982 C680.394596,143.993827 681.578278,143.026336 682.470314,141.898715 C683.363299,140.773013 683.810742,139.533205 683.810742,138.181212" id="Fill-20" fill="#4A4A4A"></path>
        <path d="M712.266884,116.146025 L749.93588,116.146025 L749.93588,115.740421 C749.93588,110.244158 748.213929,105.8506 744.77478,102.559746 C741.332779,99.2708095 736.752635,97.6253826 731.033398,97.6253826 C728.440487,97.6253826 726.028233,98.053999 723.795687,98.9093142 C721.560288,99.767506 719.594924,100.983358 717.896743,102.559746 C716.199513,104.138052 714.857893,106.052922 713.874736,108.305316 C712.891579,110.558669 712.35436,113.036398 712.266884,115.740421 L712.266884,116.146025 Z M700.33588,115.740421 C700.692441,111.59617 701.6775,107.720403 703.285352,104.11408 C704.893204,100.510633 706.993586,97.3549802 709.586497,94.6509569 C712.177506,91.9478924 715.283865,89.8306997 718.901769,88.297461 C722.521576,86.7661399 726.56355,86 731.033398,86 C735.859806,86 740.169915,86.7891529 743.969428,88.365541 C747.76799,89.9428879 751.008416,92.2182948 753.688803,95.1917616 C756.36919,98.1661872 758.424883,101.771552 759.85588,106.006896 C761.283075,110.244158 762,114.976199 762,120.201101 L762,123.851532 C762,124.844925 761.641537,125.70024 760.927465,126.420354 C760.21054,127.142386 759.363351,127.501964 758.382095,127.501964 L712.266884,127.501964 L712.266884,128.312212 C712.444689,134.44229 714.298806,139.151318 717.829234,142.439295 C721.359663,145.731108 725.7601,147.373659 731.033398,147.373659 C735.947283,147.373659 739.634598,146.677516 742.092491,145.27852 C744.550384,143.8824 746.538568,142.327107 748.058944,140.614559 C748.773967,139.894445 749.400564,139.397749 749.93588,139.127346 C750.471197,138.856944 751.276549,138.721743 752.347183,138.721743 L756.36919,138.721743 C757.352347,138.721743 758.246127,139.083238 759.050528,139.803352 C759.85588,140.525384 760.166801,141.381658 759.989947,142.372174 C759.720863,143.994588 758.96115,145.775216 757.71081,147.712141 C756.457617,149.650983 754.648189,151.452707 752.281576,153.119229 C749.91211,154.788627 746.962638,156.184747 743.434111,157.309506 C739.901781,158.436182 735.770428,159 731.033398,159 C726.56355,159 722.542494,158.209888 718.969278,156.634459 C715.39321,155.05903 712.286851,152.895811 709.653055,150.145762 C707.015455,147.39763 704.893204,144.152802 703.285352,140.412237 C701.6775,136.67263 700.692441,132.594541 700.33588,128.17797 C699.88804,124.032759 699.88804,119.88659 700.33588,115.740421 Z" id="Fill-22" fill="#4A4A4A"></path>
        <g id="Group-26" transform="translate(762.000000, 61.000000)">
            <mask id="mask-4" fill="white">
                <use xlink:href="#path-3"></use>
            </mask>
            <g id="Clip-25"></g>
            <path d="M26.501698,72.4397921 C26.501698,74.1550594 26.6592667,75.757 26.9763255,77.2465743 C27.2924235,78.7351881 27.8573647,80.0221188 28.6692275,81.1054455 C29.482051,82.1887723 30.6321098,83.0243168 32.1222863,83.6101584 C33.6124627,84.1979208 35.531149,84.4898812 37.8793059,84.4898812 L45.0582863,84.4898812 C46.052698,84.4898812 46.9087569,84.8519505 47.6331882,85.5732079 C48.3547373,86.2973465 48.7169529,87.1540198 48.7169529,88.1461089 L48.7169529,92.4784554 C48.7169529,93.4734257 48.3547373,94.330099 47.6331882,95.0513564 C46.9087569,95.775495 46.052698,96.1346832 45.0582863,96.1346832 L36.5265216,96.1346832 C28.6692275,96.1346832 22.9804235,94.1034455 19.4572275,90.0419307 C15.9359529,85.9794554 14.1748353,80.1133564 14.1748353,72.4397921 L14.1748353,37.3709307 L4.15193333,37.3709307 C3.15656078,37.3709307 2.30050196,37.0107822 1.57799216,36.287604 C0.854521569,35.5663465 0.494227451,34.7096733 0.494227451,33.714703 L0.494227451,29.3823564 C0.494227451,28.3893069 0.854521569,27.5326337 1.57799216,26.8094554 C2.30050196,26.088198 3.15656078,25.7261287 4.15193333,25.7261287 L14.1748353,25.7261287 L14.1748353,3.65622772 C14.1748353,2.66413861 14.5341686,1.80650495 15.2586,1.08332673 C15.980149,0.362069307 16.8371686,0 17.8325412,0 L22.8439922,0 C23.8374431,0 24.6944627,0.362069307 25.4179333,1.08332673 C26.1404431,1.80650495 26.501698,2.66413861 26.501698,3.65622772 L26.501698,25.7261287 L43.705502,25.7261287 C44.6970314,25.7261287 45.554051,26.088198 46.2775216,26.8094554 C46.9990706,27.5326337 47.3612863,28.3893069 47.3612863,29.3823564 L47.3612863,33.714703 C47.3612863,34.7096733 46.9990706,35.5663465 46.2775216,36.287604 C45.554051,37.0107822 44.6970314,37.3709307 43.705502,37.3709307 L26.501698,37.3709307 L26.501698,72.4397921 Z" id="Fill-24" fill="#4A4A4A" mask="url(#mask-4)"></path>
        </g>
    </g>
</svg>